<svg width="30" height="36" viewBox="0 0 30 36" fill="none" xmlns="http://www.w3.org/2000/svg">
<path d="M27.1831 25.3779C26.5088 24.9147 23.2051 22.669 22.577 22.3423C21.9503 22.0071 21.4791 21.8158 20.9187 22.4787C20.3509 23.1419 18.783 24.6065 18.3029 25.0268C17.823 25.4588 17.3973 25.4613 16.7269 25.0018C16.0575 24.54 13.838 23.4607 11.4047 20.6072C9.51468 18.3858 8.36468 15.8118 8.02935 15.0255C7.70836 14.2407 8.13075 13.8982 8.5313 13.5823C8.89812 13.2995 9.34904 12.8391 9.7612 12.4573C10.1764 12.0827 10.3307 11.7869 10.6295 11.3362C10.9292 10.8777 10.8638 10.4457 10.727 10.0569C10.5903 9.66801 9.59769 5.8912 9.17409 4.3523C8.75737 2.81452 8.1316 2.9791 7.71097 2.92222C7.29713 2.86576 6.82623 2.73378 6.34731 2.66921C5.87178 2.60485 5.07255 2.68473 4.32673 3.31706C3.57951 3.9634 1.51501 5.48188 1.07712 9.0572C0.639223 12.6325 2.77769 16.4444 3.0745 16.9758C3.37727 17.516 7.0446 25.7211 13.9695 29.6225C20.8996 33.5316 21.0195 32.5598 22.3465 32.6094C23.6748 32.6686 26.8019 31.4302 27.6047 29.8101C28.4198 28.1903 28.5968 26.7341 28.4527 26.4036C28.3091 26.0806 27.8516 25.8384 27.1831 25.3779Z" fill="#BCAC95"/>
</svg>
