<svg width="23" height="30" viewBox="0 0 23 30" fill="none" xmlns="http://www.w3.org/2000/svg">
<path fill-rule="evenodd" clip-rule="evenodd" d="M12.8674 29.5298C12.0548 30.1567 10.9452 30.1567 10.1326 29.5298C9.79288 29.2677 9.23718 28.8023 8.53629 28.1536C7.38056 27.0839 6.22622 25.8732 5.14398 24.5382C1.9506 20.5989 0 16.39 0 12C0 5.37258 5.14873 0 11.5 0C17.8513 0 23 5.37258 23 12C23 16.39 21.0494 20.5989 17.856 24.5382C16.7738 25.8732 15.6194 27.0839 14.4637 28.1536C13.7628 28.8023 13.2071 29.2677 12.8674 29.5298ZM11.5008 15.5999C9.5954 15.5999 8.05078 13.9881 8.05078 11.9999C8.05078 10.0117 9.5954 8.3999 11.5008 8.3999C13.4062 8.3999 14.9508 10.0117 14.9508 11.9999C14.9508 13.9881 13.4062 15.5999 11.5008 15.5999Z" fill="#BCAC95"/>
</svg>
