<svg width="29" height="21" viewBox="0 0 29 21" fill="none" xmlns="http://www.w3.org/2000/svg">
<path fill-rule="evenodd" clip-rule="evenodd" d="M1.01953 0.448242C1.35352 0.244141 1.75 0.12793 2.17578 0.12793H26.8242C27.25 0.12793 27.6465 0.244141 27.9805 0.448242L15.543 10.9814C14.8828 11.5396 14.0938 11.54 13.4355 10.9814L1.01953 0.448242ZM0 3.24805C0 3.00684 0.0488281 2.77881 0.125 2.56348L12.4844 13.0415C13.6387 14.02 15.3398 14.0186 16.4941 13.0415L28.875 2.56348C28.9512 2.77881 29 3.00684 29 3.24805V18.7939C29 19.9683 28.0293 20.9136 26.8242 20.9136H2.17578C0.970703 20.9136 0 19.9683 0 18.7939V3.24805Z" fill="#BCAC95"/>
</svg>
