<svg width="13" height="16" viewBox="0 0 13 16" fill="none" xmlns="http://www.w3.org/2000/svg">
<path fill-rule="evenodd" clip-rule="evenodd" d="M7.07687 15.7492C6.62995 16.0836 6.01969 16.0836 5.57277 15.7492C5.38593 15.6094 5.0803 15.3612 4.69483 15.0152C4.05919 14.4447 3.42432 13.7991 2.82911 13.087C1.0728 10.9861 0 8.74136 0 6.4C0 2.86538 2.83172 0 6.32482 0C9.81792 0 12.6496 2.86538 12.6496 6.4C12.6496 8.74136 11.5768 10.9861 9.82053 13.087C9.22532 13.7991 8.59044 14.4447 7.95481 15.0152C7.56933 15.3612 7.26371 15.6094 7.07687 15.7492ZM6.32494 8.31998C5.27701 8.31998 4.42749 7.46037 4.42749 6.39998C4.42749 5.33959 5.27701 4.47998 6.32494 4.47998C7.37287 4.47998 8.22238 5.33959 8.22238 6.39998C8.22238 7.46037 7.37287 8.31998 6.32494 8.31998Z" fill="#BCAC95"/>
</svg>
