<svg width="17" height="18" viewBox="0 0 17 18" fill="none" xmlns="http://www.w3.org/2000/svg">
<path fill-rule="evenodd" clip-rule="evenodd" d="M15.8757 17.5571C16.1245 17.8232 16.5229 17.8472 16.7966 17.6055C17.0457 17.3638 17.0706 16.9775 16.8464 16.7114L13.8345 13.4736C15.4277 11.9512 16.3735 9.77637 16.2241 7.38428C15.9753 3.4458 12.6895 0.256348 8.65723 0.0146484C3.65405 -0.275391 -0.478027 3.83252 0.0446777 8.73779C0.442871 12.3862 3.45483 15.3101 7.21338 15.6968C9.32935 15.9385 11.2708 15.3828 12.8389 14.2954L15.8757 17.5571ZM14.9297 7.8916C14.9297 11.5161 11.8928 14.4883 8.13428 14.4883C4.37573 14.4883 1.31396 11.5405 1.33887 7.8916C1.33887 4.26709 4.40063 1.29492 8.13428 1.29492C11.8679 1.29492 14.9297 4.24268 14.9297 7.8916Z" fill="#BCAC95"/>
</svg>
