<svg width="133" height="14" viewBox="0 0 133 14" fill="none" xmlns="http://www.w3.org/2000/svg">
<path fill-rule="evenodd" clip-rule="evenodd" d="M0 7C0 5.93333 0.186833 4.97 0.560506 4.11C0.934178 3.25 1.4413 2.51334 2.08188 1.9C2.72246 1.28666 3.46979 0.816668 4.3239 0.49C5.17801 0.163332 6.08549 0 7.04636 0C7.80705 0 8.48432 0.0733326 9.07819 0.22C9.67206 0.366667 10.1825 0.533332 10.6096 0.72C11.1034 0.933334 11.5304 1.16667 11.8907 1.42L9.78883 5.12C9.5753 4.96 9.34176 4.80667 9.0882 4.66C8.86133 4.55333 8.59109 4.45 8.27747 4.35C7.96385 4.25 7.60687 4.2 7.2065 4.2C6.79279 4.2 6.41245 4.27333 6.06547 4.42C5.71849 4.56667 5.41489 4.76667 5.15465 5.02C4.89441 5.27333 4.6909 5.57 4.5441 5.91C4.3973 6.25 4.3239 6.61333 4.3239 7C4.3239 7.38667 4.40064 7.75 4.55411 8.09C4.70758 8.43 4.91777 8.72666 5.18468 8.98C5.45159 9.23333 5.7652 9.43333 6.12553 9.58C6.48585 9.72667 6.87954 9.8 7.30659 9.8C7.73365 9.8 8.11399 9.74667 8.44762 9.64C8.78126 9.53333 9.06151 9.41333 9.28838 9.28C9.55529 9.13333 9.78883 8.96 9.98901 8.76L12.0909 12.46C11.7306 12.7533 11.3035 13.0133 10.8098 13.24C10.3827 13.4267 9.86891 13.6 9.26836 13.76C8.66782 13.92 7.98054 14 7.2065 14C6.16556 14 5.2047 13.83 4.3239 13.49C3.4431 13.15 2.68242 12.6733 2.04184 12.06C1.40126 11.4467 0.900815 10.71 0.540488 9.85C0.180161 8.99 0 8.04 0 7ZM12.5913 0.320312H16.1145L19.5976 5.44031L23.0608 0.320312H26.5839V13.6603H22.3201V8.86031L19.5976 12.8603L16.8552 8.86031V13.6603H12.5913V0.320312ZM31.9488 0.320312H35.1517L40.2163 13.6603H36.0125L35.5721 12.4603H31.5285L31.0881 13.6603H26.8843L31.9488 0.320312ZM34.451 9.51969L33.5502 7.17969L32.6494 9.51969H34.451ZM50.906 5.40031C50.906 6.32032 50.7458 7.10364 50.4255 7.75031C50.1053 8.39698 49.6682 8.92031 49.1144 9.32031C48.5605 9.72031 47.9133 10.0136 47.1726 10.2003C46.4319 10.387 45.6346 10.4803 44.7804 10.4803V13.6603H40.5166V0.320312H44.7804C45.6346 0.320312 46.4319 0.413645 47.1726 0.600312C47.9133 0.78698 48.5605 1.08031 49.1144 1.48031C49.6682 1.88031 50.1053 2.40364 50.4255 3.05031C50.7458 3.69698 50.906 4.48031 50.906 5.40031ZM44.7805 6.87992H44.9607C45.5212 6.87992 45.9249 6.74992 46.1718 6.48992C46.4187 6.22992 46.5421 5.86659 46.5421 5.39992C46.5421 4.93325 46.4187 4.56992 46.1718 4.30992C45.9249 4.04992 45.5212 3.91992 44.9607 3.91992H44.7805V6.87992ZM53.6685 3.82031H51.2063V0.320312H60.5347V3.82031H58.0725V13.6603H53.6685V3.82031ZM76.429 7C76.429 8.04 76.2489 8.99 75.8886 9.85C75.5282 10.71 75.0278 11.4467 74.3872 12.06C73.7466 12.6733 72.9859 13.15 72.1051 13.49C71.2243 13.83 70.2635 14 69.2225 14C68.6087 14 68.0481 13.9533 67.541 13.86C67.0339 13.7667 66.5768 13.6433 66.1698 13.49C65.7627 13.3367 65.4091 13.17 65.1088 12.99C64.8086 12.81 64.5517 12.6333 64.3381 12.46L66.44 8.76C66.8004 9.10667 67.2174 9.36667 67.6912 9.54C68.1649 9.71333 68.642 9.8 69.1225 9.8C69.6296 9.8 70.0967 9.69333 70.5237 9.48C70.9508 9.26667 71.2977 8.98 71.5647 8.62H67.9414V5.3H71.5246C71.2577 4.96667 70.9274 4.7 70.5337 4.5C70.14 4.3 69.703 4.2 69.2225 4.2C68.7288 4.2 68.265 4.28667 67.8313 4.46C67.3976 4.63333 67.0005 4.85333 66.6402 5.12L64.5383 1.42C64.7518 1.26 65.0121 1.09667 65.319 0.93C65.626 0.763332 65.9796 0.610001 66.38 0.47C66.7803 0.329999 67.2307 0.216667 67.7312 0.13C68.2317 0.0433329 68.7821 0 69.3827 0C70.3436 0 71.251 0.163332 72.1051 0.49C72.9593 0.816668 73.7066 1.28666 74.3472 1.9C74.9877 2.51334 75.4949 3.25 75.8685 4.11C76.2422 4.97 76.429 5.93333 76.429 7ZM77.53 0.320312H81.7939V4.86031H84.176V0.320312H88.4599V13.6603H84.176V8.72031H81.7939V13.6603H77.53V0.320312ZM89.8611 0.320312H97.7282V3.82031H94.1249V5.30031H97.6681V8.62031H94.1249V10.1603H97.8683V13.6603H89.8611V0.320312ZM109.459 5.40031C109.459 6.32032 109.299 7.10364 108.978 7.75031C108.658 8.39698 108.221 8.92031 107.667 9.32031C107.113 9.72031 106.466 10.0136 105.725 10.2003C104.985 10.387 104.187 10.4803 103.333 10.4803V13.6603H99.0693V0.320312H103.333C104.187 0.320312 104.985 0.413645 105.725 0.600312C106.466 0.78698 107.113 1.08031 107.667 1.48031C108.221 1.88031 108.658 2.40364 108.978 3.05031C109.299 3.69698 109.459 4.48031 109.459 5.40031ZM103.333 6.87992H103.513C104.074 6.87992 104.478 6.74992 104.725 6.48992C104.971 6.22992 105.095 5.86659 105.095 5.39992C105.095 4.93325 104.971 4.56992 104.725 4.30992C104.478 4.04992 104.074 3.91992 103.513 3.91992H103.333V6.87992ZM110.46 0.320312H118.587V3.82031H114.904V13.6603H110.46V0.320312ZM118.987 7C118.987 6.04 119.171 5.13334 119.538 4.28C119.905 3.42666 120.405 2.68334 121.039 2.05C121.673 1.41666 122.417 0.916669 123.271 0.55C124.125 0.183332 125.033 0 125.994 0C126.954 0 127.862 0.183332 128.716 0.55C129.57 0.916669 130.314 1.41666 130.948 2.05C131.582 2.68334 132.082 3.42666 132.449 4.28C132.816 5.13334 133 6.04 133 7C133 7.96 132.816 8.86666 132.449 9.72C132.082 10.5733 131.582 11.3167 130.948 11.95C130.314 12.5833 129.57 13.0833 128.716 13.45C127.862 13.8167 126.954 14 125.994 14C125.033 14 124.125 13.8167 123.271 13.45C122.417 13.0833 121.673 12.5833 121.039 11.95C120.405 11.3167 119.905 10.5733 119.538 9.72C119.171 8.86666 118.987 7.96 118.987 7ZM123.191 7.0002C123.191 7.38686 123.265 7.75019 123.411 8.0902C123.558 8.4302 123.758 8.72686 124.012 8.9802C124.265 9.23353 124.562 9.43353 124.903 9.5802C125.243 9.72686 125.607 9.8002 125.994 9.8002C126.381 9.8002 126.744 9.72686 127.085 9.5802C127.425 9.43353 127.722 9.23353 127.975 8.9802C128.229 8.72686 128.429 8.4302 128.576 8.0902C128.723 7.75019 128.796 7.38686 128.796 7.0002C128.796 6.61353 128.723 6.2502 128.576 5.9102C128.429 5.57019 128.229 5.27353 127.975 5.0202C127.722 4.76686 127.425 4.56686 127.085 4.4202C126.744 4.27353 126.381 4.2002 125.994 4.2002C125.607 4.2002 125.243 4.27353 124.903 4.4202C124.562 4.56686 124.265 4.76686 124.012 5.0202C123.758 5.27353 123.558 5.57019 123.411 5.9102C123.265 6.2502 123.191 6.61353 123.191 7.0002Z" fill="#1C1C1C"/>
</svg>
