<svg width="125" height="14" viewBox="0 0 125 14" fill="none" xmlns="http://www.w3.org/2000/svg">
<path fill-rule="evenodd" clip-rule="evenodd" d="M0 7C0 5.93333 0.17981 4.97 0.539434 4.11C0.899059 3.25 1.38711 2.51334 2.00361 1.9C2.62011 1.28666 3.33935 0.816668 4.16135 0.49C4.98335 0.163332 5.85671 0 6.78146 0C7.51355 0 8.16536 0.0733326 8.73691 0.22C9.30845 0.366667 9.79972 0.533332 10.2107 0.72C10.6859 0.933334 11.0969 1.16667 11.4437 1.42L9.42083 5.12C9.21533 4.96 8.99057 4.80667 8.74654 4.66C8.52819 4.55333 8.26811 4.45 7.96629 4.35C7.66446 4.25 7.32089 4.2 6.93558 4.2C6.53743 4.2 6.17138 4.27333 5.83745 4.42C5.50351 4.56667 5.21132 4.76667 4.96087 5.02C4.71041 5.27333 4.51455 5.57 4.37327 5.91C4.23199 6.25 4.16135 6.61333 4.16135 7C4.16135 7.38667 4.2352 7.75 4.3829 8.09C4.5306 8.43 4.73289 8.72666 4.98977 8.98C5.24664 9.23333 5.54846 9.43333 5.89524 9.58C6.24202 9.72667 6.62091 9.8 7.03191 9.8C7.44291 9.8 7.80895 9.74667 8.13004 9.64C8.45114 9.53333 8.72085 9.41333 8.93919 9.28C9.19607 9.13333 9.42083 8.96 9.61349 8.76L11.6364 12.46C11.2896 12.7533 10.8786 13.0133 10.4034 13.24C9.99237 13.4267 9.4979 13.6 8.91993 13.76C8.34196 13.92 7.68052 14 6.93558 14C5.93377 14 5.00904 13.83 4.16135 13.49C3.31366 13.15 2.58158 12.6733 1.96508 12.06C1.34858 11.4467 0.866949 10.71 0.520169 9.85C0.173388 8.99 0 8.04 0 7ZM12.118 0.319824H15.5087L18.8609 5.43982L22.1939 0.319824H25.5846V13.6598H21.481V8.85982L18.8609 12.8598L16.2215 8.85982V13.6598H12.118V0.319824ZM30.7477 0.319824H33.8302L38.7044 13.6598H34.6586L34.2348 12.4598H30.3432L29.9193 13.6598H25.8736L30.7477 0.319824ZM33.1559 9.52018L32.289 7.18018L31.422 9.52018H33.1559ZM48.9922 5.39982C48.9922 6.31983 48.8381 7.10315 48.5298 7.74982C48.2215 8.39649 47.8009 8.91982 47.2679 9.31982C46.7349 9.71983 46.112 10.0132 45.3992 10.1998C44.6863 10.3865 43.9189 10.4798 43.0969 10.4798V13.6598H38.9934V0.319824H43.0969C43.9189 0.319824 44.6863 0.413157 45.3992 0.599824C46.112 0.786492 46.7349 1.07982 47.2679 1.47982C47.8009 1.87983 48.2215 2.40315 48.5298 3.04982C48.8381 3.69649 48.9922 4.47982 48.9922 5.39982ZM43.0969 6.87992H43.2703C43.8097 6.87992 44.1983 6.74992 44.4359 6.48992C44.6735 6.22992 44.7923 5.86659 44.7923 5.39992C44.7923 4.93325 44.6735 4.56992 44.4359 4.30992C44.1983 4.04992 43.8097 3.91992 43.2703 3.91992H43.0969V6.87992ZM51.6508 3.81982H49.2812V0.319824H58.2589V3.81982H55.8892V13.6598H51.6508V3.81982ZM70.5557 7C70.5557 8.04 70.3823 8.99 70.0355 9.85C69.6887 10.71 69.2071 11.4467 68.5906 12.06C67.9741 12.6733 67.242 13.15 66.3943 13.49C65.5466 13.83 64.6219 14 63.6201 14C63.0293 14 62.4899 13.9533 62.0018 13.86C61.5137 13.7667 61.0738 13.6433 60.6821 13.49C60.2904 13.3367 59.95 13.17 59.661 12.99C59.3721 12.81 59.1248 12.6333 58.9193 12.46L60.9422 8.76C61.289 9.10667 61.6903 9.36667 62.1463 9.54C62.6022 9.71333 63.0614 9.8 63.5238 9.8C64.0118 9.8 64.4613 9.69333 64.8724 9.48C65.2833 9.26667 65.6173 8.98 65.8742 8.62H62.3871V5.3H65.8356C65.5788 4.96667 65.2609 4.7 64.882 4.5C64.5031 4.3 64.0825 4.2 63.6201 4.2C63.1449 4.2 62.6986 4.28667 62.2811 4.46C61.8637 4.63333 61.4816 4.85333 61.1348 5.12L59.112 1.42C59.3175 1.26 59.5679 1.09667 59.8633 0.93C60.1587 0.763332 60.4991 0.610001 60.8844 0.47C61.2697 0.329999 61.7032 0.216667 62.1848 0.13C62.6665 0.0433329 63.1963 0 63.7742 0C64.699 0 65.5723 0.163332 66.3943 0.49C67.2163 0.816668 67.9356 1.28666 68.5521 1.9C69.1686 2.51334 69.6566 3.25 70.0162 4.11C70.3759 4.97 70.5557 5.93333 70.5557 7ZM71.6153 0.319824H75.7188V4.85982H78.0114V0.319824H82.1343V13.6598H78.0114V8.71982H75.7188V13.6598H71.6153V0.319824ZM83.4828 0.319824H91.0542V3.81982H87.5864V5.29982H90.9964V8.61982H87.5864V10.1598H91.189V13.6598H83.4828V0.319824ZM102.344 5.39982C102.344 6.31983 102.19 7.10315 101.881 7.74982C101.573 8.39649 101.153 8.91982 100.62 9.31982C100.086 9.71983 99.4636 10.0132 98.7507 10.1998C98.0379 10.3865 97.2705 10.4798 96.4485 10.4798V13.6598H92.345V0.319824H96.4485C97.2705 0.319824 98.0379 0.413157 98.7507 0.599824C99.4636 0.786492 100.086 1.07982 100.62 1.47982C101.153 1.87983 101.573 2.40315 101.881 3.04982C102.19 3.69649 102.344 4.47982 102.344 5.39982ZM96.4485 6.87992H96.6219C97.1613 6.87992 97.5499 6.74992 97.7875 6.48992C98.0251 6.22992 98.1439 5.86659 98.1439 5.39992C98.1439 4.93325 98.0251 4.56992 97.7875 4.30992C97.5499 4.04992 97.1613 3.91992 96.6219 3.91992H96.4485V6.87992ZM103.307 0.319824H111.129V3.81982H107.584V13.6598H103.307V0.319824ZM111.514 7C111.514 6.04 111.691 5.13334 112.044 4.28C112.397 3.42666 112.879 2.68334 113.489 2.05C114.099 1.41666 114.815 0.916669 115.637 0.55C116.459 0.183332 117.332 0 118.257 0C119.182 0 120.055 0.183332 120.877 0.55C121.699 0.916669 122.415 1.41666 123.025 2.05C123.635 2.68334 124.117 3.42666 124.47 4.28C124.823 5.13334 125 6.04 125 7C125 7.96 124.823 8.86666 124.47 9.72C124.117 10.5733 123.635 11.3167 123.025 11.95C122.415 12.5833 121.699 13.0833 120.877 13.45C120.055 13.8167 119.182 14 118.257 14C117.332 14 116.459 13.8167 115.637 13.45C114.815 13.0833 114.099 12.5833 113.489 11.95C112.879 11.3167 112.397 10.5733 112.044 9.72C111.691 8.86666 111.514 7.96 111.514 7ZM115.56 7.0002C115.56 7.38686 115.631 7.75019 115.772 8.0902C115.913 8.4302 116.106 8.72686 116.35 8.9802C116.594 9.23353 116.88 9.43353 117.207 9.5802C117.535 9.72686 117.885 9.8002 118.257 9.8002C118.63 9.8002 118.98 9.72686 119.307 9.5802C119.635 9.43353 119.92 9.23353 120.164 8.9802C120.408 8.72686 120.601 8.4302 120.742 8.0902C120.884 7.75019 120.954 7.38686 120.954 7.0002C120.954 6.61353 120.884 6.2502 120.742 5.9102C120.601 5.57019 120.408 5.27353 120.164 5.0202C119.92 4.76686 119.635 4.56686 119.307 4.4202C118.98 4.27353 118.63 4.2002 118.257 4.2002C117.885 4.2002 117.535 4.27353 117.207 4.4202C116.88 4.56686 116.594 4.76686 116.35 5.0202C116.106 5.27353 115.913 5.57019 115.772 5.9102C115.631 6.2502 115.56 6.61353 115.56 7.0002Z" fill="white"/>
</svg>
